HIERARCHY
ROOT Hips
{
    OFFSET 0.000000 0.000000 0.000000
    CHANNELS 6 Xposition Yposition Zposition Zrotation Xrotation Yrotation
    JOINT Spine
    {
        OFFSET -0.000000 7.236184 0.000000
        CHANNELS 3 Zrotation Xrotation Yrotation
        JOINT Spine1
        {
            OFFSET -0.000000 20.420147 0.000000
            CHANNELS 3 Zrotation Xrotation Yrotation
            JOINT Neck
            {
                OFFSET -0.000000 20.336288 1.848754
                CHANNELS 3 Zrotation Xrotation Yrotation
                JOINT Head
                {
                    OFFSET -0.000000 12.354461 -1.764923
                    CHANNELS 3 Zrotation Xrotation Yrotation
                    End Site
                    {
                        OFFSET -0.000000 22.061537 0.000000
                    }
                }
            }
            JOINT LeftShoulder
            {
                OFFSET 3.573296 18.396038 -0.314103
                CHANNELS 3 Zrotation Xrotation Yrotation
                JOINT LeftArm
                {
                    OFFSET 10.880760 0.000000 0.000000
                    CHANNELS 3 Zrotation Xrotation Yrotation
                    JOINT LeftForeArm
                    {
                        OFFSET 27.185530 0.000000 0.000000
                        CHANNELS 3 Zrotation Xrotation Yrotation
                        JOINT LeftHand
                        {
                            OFFSET 27.825975 0.000000 0.000000
                            CHANNELS 3 Zrotation Xrotation Yrotation
                            End Site
                            {
                                OFFSET 13.236923 0.000000 0.000000
                            }
                        }
                    }
                }
            }
            JOINT RightShoulder
            {
                OFFSET -3.474926 18.396038 -0.314103
                CHANNELS 3 Zrotation Xrotation Yrotation
                JOINT RightArm
                {
                    OFFSET -10.880760 0.000000 0.000000
                    CHANNELS 3 Zrotation Xrotation Yrotation
                    JOINT RightForeArm
                    {
                        OFFSET -27.185530 0.000000 0.000000
                        CHANNELS 3 Zrotation Xrotation Yrotation
                        JOINT RightHand
                        {
                            OFFSET -27.825975 0.000000 0.000000
                            CHANNELS 3 Zrotation Xrotation Yrotation
                            End Site
                            {
                                OFFSET -13.236923 0.000000 0.000000
                            }
                        }
                    }
                }
            }
        }
    }
    JOINT LeftUpLeg
    {
        OFFSET 8.824615 0.000000 0.000000
        CHANNELS 3 Zrotation Xrotation Yrotation
        JOINT LeftLeg
        {
            OFFSET -0.000000 -35.111282 0.000000
            CHANNELS 3 Zrotation Xrotation Yrotation
            JOINT LeftFoot
            {
                OFFSET -0.000000 -42.324711 0.000000
                CHANNELS 3 Zrotation Xrotation Yrotation
                JOINT LeftToeBase
                {
                    OFFSET -0.000000 -5.735999 13.236923
                    CHANNELS 3 Zrotation Xrotation Yrotation
                    End Site
                    {
                        OFFSET -0.000000 0.000000 3.529846
                    }
                }
            }
        }
    }
    JOINT RightUpLeg
    {
        OFFSET -8.824615 0.000000 0.000000
        CHANNELS 3 Zrotation Xrotation Yrotation
        JOINT RightLeg
        {
            OFFSET -0.000000 -35.111282 0.000000
            CHANNELS 3 Zrotation Xrotation Yrotation
            JOINT RightFoot
            {
                OFFSET -0.000000 -42.324711 0.000000
                CHANNELS 3 Zrotation Xrotation Yrotation
                JOINT RightToeBase
                {
                    OFFSET -0.000000 -5.735999 13.236923
                    CHANNELS 3 Zrotation Xrotation Yrotation
                    End Site
                    {
                        OFFSET -0.000000 0.000000 3.529846
                    }
                }
            }
        }
    }
}
MOTION
Frames:    7
Frame Time:    0.008333
-4.764987    83.519920    100.536324    -1.096539    -18.986969    -179.095093    -1.307217    -6.542551    1.289938    -2.939527    7.150379    1.548337    3.450586    5.687809    -3.041537    2.702592    -23.338137    -2.582088    13.679745    -1.578826    -13.562834    -18.447920    19.936275    -54.458282    16.356455    2.525498    -22.355740    23.141142    4.416980    -6.634525    -11.033818    3.188334    7.877770    22.097874    17.295095    55.487675    -31.035896    -6.876878    39.065010    -18.398474    4.033878    2.429427    4.325977    -30.574259    -0.902347    1.000619    27.695389    4.508984    -6.337860    -5.123484    -13.164510    -0.779860    -3.666286    0.870361    -7.181831    -26.549107    0.904484    2.825114    21.160107    3.581139    2.391924    -3.447768    -10.936604    -2.405297    -3.824625    2.615599    
-4.556222    83.592522    100.444183    -1.248118    -19.019531    -179.186157    -1.242713    -6.615776    1.290173    -3.037815    7.160224    1.552141    3.590531    6.126926    -2.954826    2.216526    -23.204933    -2.658737    13.246276    -0.825650    -12.752337    -19.139048    20.521917    -53.008175    16.993155    2.378152    -23.425226    23.465048    4.587213    -6.429519    -10.567992    3.859715    7.120111    22.679718    18.014574    54.047531    -32.239609    -7.732540    41.368458    -18.632753    4.460676    2.026268    4.371942    -30.428642    -0.916892    0.956864    27.479059    4.591595    -6.413293    -4.806791    -13.197383    -0.805873    -3.820544    0.899660    -7.159718    -26.480629    0.883581    2.815516    21.046076    3.615529    2.386621    -3.344119    -10.887386    -2.444849    -3.840747    2.658670    
-4.349222    83.662811    100.345596    -1.404422    -19.050352    -179.284180    -1.180423    -6.689663    1.289593    -3.122509    7.168018    1.554196    3.713452    6.589731    -2.867064    1.733774    -23.064449    -2.728736    12.792130    -0.041589    -11.889954    -19.915960    21.115784    -51.472450    17.659594    2.217991    -24.568029    23.743385    4.785873    -6.198722    -10.103773    4.550694    6.316293    23.321672    18.747990    52.530994    -33.410694    -8.648092    43.709938    -18.840080    4.908084    1.600512    4.415563    -30.281555    -0.928833    0.913521    27.272463    4.676307    -6.489145    -4.494378    -13.236141    -0.828335    -3.974420    0.925011    -7.139430    -26.406387    0.870757    2.807039    20.933460    3.657296    2.377409    -3.251664    -10.852009    -2.484100    -3.857343    2.701418    
-4.143577    83.729446    100.241196    -1.565430    -19.079975    -179.389374    -1.121771    -6.763421    1.287823    -3.190834    7.174599    1.554188    3.820623    7.073277    -2.777619    1.248922    -22.915995    -2.793483    12.317518    0.771472    -10.974957    -20.783831    21.713051    -49.847134    18.353895    2.041954    -25.781427    23.974413    5.011533    -5.942968    -9.645171    5.260842    5.467226    24.029947    19.490421    50.932323    -34.540611    -9.622087    46.083595    -19.017599    5.373338    1.154684    4.457107    -30.135511    -0.938126    0.871053    27.078934    4.763552    -6.567345    -4.189683    -13.281170    -0.847231    -4.126621    0.946390    -7.120794    -26.329424    0.865638    2.800019    20.826435    3.707347    2.362656    -3.174165    -10.831540    -2.523583    -3.872567    2.744413    
-3.939969    83.790718    100.132217    -1.730034    -19.108847    -179.501022    -1.068226    -6.836151    1.284585    -3.240009    7.181031    1.551704    3.908055    7.571940    -2.687531    0.768319    -22.759491    -2.851895    11.825257    1.606928    -10.011857    -21.743137    22.305281    -48.138168    19.070156    1.848381    -27.054478    24.155544    5.261295    -5.664576    -9.197531    5.985114    4.578833    24.807709    20.232767    49.253082    -35.615032    -10.645323    48.471535    -19.163855    5.852013    0.694980    4.496563    -29.993929    -0.944916    0.830265    26.902771    4.853140    -6.649660    -3.897717    -13.332721    -0.862651    -4.275331    0.963895    -7.103539    -26.253090    0.866613    2.794175    20.729441    3.765169    2.340700    -3.115372    -10.824765    -2.563524    -3.886772    2.787905    
-3.735880    83.845886    100.018143    -1.899902    -19.137770    -179.619980    -1.020360    -6.907662    1.279600    -3.268609    7.187754    1.546553    3.971844    8.089137    -2.596982    0.293968    -22.593269    -2.903194    11.310234    2.472222    -8.990338    -22.809967    22.891888    -46.324501    19.812809    1.632900    -28.394714    24.288298    5.535748    -5.362606    -8.757792    6.730788    3.642955    25.670900    20.975969    47.466297    -36.635777    -11.723238    50.894684    -19.280731    6.347291    0.221671    4.534323    -29.857765    -0.949721    0.791178    26.745373    4.946481    -6.739048    -3.618987    -13.391805    -0.874540    -4.421344    0.977457    -7.087441    -26.179312    0.871268    2.788913    20.645248    3.830194    2.309753    -3.078197    -10.828483    -2.604751    -3.898782    2.832788    
-3.534140    83.892754    99.901443    -2.072212    -19.166832    -179.743820    -0.979788    -6.976326    1.273005    -3.274749    7.195240    1.538645    4.009315    8.614533    -2.508131    -0.164530    -22.419090    -2.946918    10.780876    3.351926    -7.926314    -23.973747    23.456568    -44.432472    20.566982    1.396989    -29.774006    24.369631    5.828147    -5.044291    -8.333674    7.485331    2.675189    26.613865    21.701077    45.589722    -37.577511    -12.831635    53.312019    -19.368677    6.849984    -0.251900    4.569837    -29.731565    -0.953239    0.754643    26.612049    5.042953    -6.836017    -3.361092    -13.458258    -0.882575    -4.561048    0.986706    -7.072840    -26.111980    0.876681    2.783744    20.578825    3.899254    2.268925    -3.066529    -10.838122    -2.647121    -3.907515    2.878902    
